<?xml version="1.0" standalone="no"?>
<!DOCTYPE svg PUBLIC "-//W3C//DTD SVG 20010904//EN"
 "http://www.w3.org/TR/2001/REC-SVG-20010904/DTD/svg10.dtd">
<svg version="1.0" xmlns="http://www.w3.org/2000/svg"
 width="500.000000pt" height="500.000000pt" viewBox="0 0 500.000000 500.000000"
 preserveAspectRatio="xMidYMid meet">
<metadata>
Created by potrace 1.14, written by Peter Selinger 2001-2017
</metadata>
<g transform="translate(0.000000,500.000000) scale(0.100000,-0.100000)"
fill="#000000" stroke="none">
<path d="M2418 4694 c-2 -1 -26 -4 -53 -5 -28 -1 -60 -6 -72 -10 -14 -5 -23
-5 -23 1 0 5 -6 7 -13 4 -29 -11 -243 -52 -249 -47 -5 2 -8 -1 -8 -8 0 -7 -3
-9 -7 -6 -3 4 -12 2 -20 -4 -7 -6 -13 -8 -13 -4 0 4 -7 2 -15 -5 -8 -7 -15
-10 -15 -7 0 3 -16 -1 -35 -9 -20 -8 -40 -12 -45 -9 -6 4 -10 2 -10 -2 0 -8
-48 -32 -78 -38 -24 -6 -197 -90 -200 -98 -2 -4 -8 -5 -13 -1 -5 3 -9 0 -9 -7
0 -7 -3 -10 -6 -6 -4 3 -22 -5 -40 -20 -19 -14 -34 -22 -34 -18 0 4 -15 -4
-34 -19 -19 -14 -37 -26 -40 -26 -17 0 -224 -157 -273 -207 -24 -24 -43 -42
-43 -39 0 2 -28 -26 -62 -62 -35 -36 -80 -84 -100 -106 -21 -21 -35 -42 -33
-46 3 -4 -2 -10 -10 -13 -17 -7 -145 -196 -145 -214 0 -7 -4 -13 -8 -13 -5 0
-19 -22 -32 -50 -13 -27 -28 -50 -33 -50 -6 0 -7 -3 -4 -7 4 -3 2 -12 -4 -20
-6 -7 -8 -13 -3 -13 5 0 5 -4 -1 -8 -5 -4 -23 -36 -39 -72 -16 -36 -33 -73
-38 -84 -5 -10 -18 -45 -29 -78 -10 -32 -22 -64 -26 -71 -4 -6 -8 -18 -9 -27
-1 -8 -5 -25 -8 -37 -3 -13 -8 -32 -10 -43 -3 -11 -7 -24 -10 -28 -4 -6 -12
-48 -21 -117 -5 -31 -15 -87 -23 -120 -15 -67 -5 -568 13 -641 2 -12 7 -39 10
-60 4 -21 9 -48 12 -59 8 -22 12 -41 17 -70 2 -11 6 -27 9 -35 15 -39 47 -145
47 -157 0 -7 5 -13 12 -13 6 0 9 -3 6 -6 -10 -10 109 -270 142 -309 7 -8 9
-15 5 -15 -4 0 5 -13 18 -30 14 -16 28 -39 32 -50 3 -11 10 -20 14 -20 4 0 16
-16 27 -35 10 -19 22 -35 26 -35 5 0 8 -5 8 -11 0 -6 6 -16 13 -23 6 -7 25
-31 42 -52 31 -41 183 -202 225 -240 14 -12 41 -36 60 -53 63 -57 74 -66 137
-106 35 -22 63 -43 63 -47 0 -5 6 -8 14 -8 8 0 21 -6 28 -13 23 -22 119 -77
134 -77 8 0 14 -4 14 -8 0 -14 189 -95 320 -137 47 -15 92 -29 100 -32 8 -4
20 -7 25 -8 6 -2 28 -7 50 -13 66 -18 87 -22 215 -41 59 -8 224 -21 285 -22
58 -1 346 21 356 27 3 2 19 6 35 8 112 21 177 37 192 49 8 6 12 6 12 -1 0 -7
10 -5 28 4 15 7 34 14 43 14 9 0 19 3 23 7 6 7 29 13 54 15 6 1 12 5 12 10 0
4 7 8 16 8 15 0 40 10 129 50 22 10 50 22 63 25 12 4 22 10 22 15 0 4 12 11
27 15 15 3 30 10 33 13 3 4 26 18 53 32 26 13 47 28 47 32 0 5 6 8 13 8 6 0
36 18 65 40 28 22 52 38 52 35 0 -3 8 3 18 13 19 17 31 27 84 68 15 12 24 24
21 28 -3 3 -1 6 7 6 14 0 218 204 270 270 19 25 38 47 42 48 4 2 8 8 8 13 0
11 61 92 73 97 4 2 5 8 1 13 -3 5 0 9 5 9 6 0 11 7 11 15 0 7 8 19 18 24 9 6
13 11 7 11 -7 0 -7 3 0 8 6 4 18 21 28 37 21 37 108 216 111 230 1 6 12 30 23
55 12 25 27 64 34 88 6 23 15 42 18 42 3 0 7 14 8 30 1 16 9 51 18 77 9 27 18
59 20 73 4 24 7 40 21 103 3 15 7 44 9 65 2 20 7 62 11 92 10 90 7 471 -4 482
-6 6 -8 16 -5 24 2 7 -2 50 -11 96 -9 46 -18 93 -19 105 -2 12 -6 26 -10 29
-4 4 -7 17 -7 28 0 12 -9 47 -20 80 -11 32 -17 62 -14 67 3 5 1 9 -4 9 -5 0
-14 19 -21 42 -7 23 -26 68 -41 100 -16 32 -26 58 -24 58 4 0 -74 154 -99 195
-48 78 -61 101 -62 105 0 8 -59 85 -67 88 -5 2 -8 8 -8 13 0 11 -36 54 -97
116 -23 24 -40 43 -37 43 2 0 -34 38 -81 85 -47 47 -90 85 -94 85 -5 0 -11 7
-15 15 -3 8 -12 15 -21 15 -8 0 -15 7 -15 15 0 8 -7 15 -15 15 -9 0 -18 7 -21
15 -4 8 -12 15 -19 15 -6 0 -21 8 -33 18 -47 39 -59 48 -95 67 -20 11 -37 23
-37 27 0 5 -6 8 -14 8 -8 0 -21 6 -28 13 -15 16 -43 31 -148 82 -41 19 -87 43
-102 51 -16 8 -28 13 -28 9 0 -3 -11 2 -25 11 -14 9 -25 13 -25 10 0 -4 -18 3
-40 14 -22 11 -40 18 -40 16 0 -3 -21 4 -47 15 -25 11 -52 18 -60 15 -7 -3
-13 -2 -13 2 0 11 -169 47 -252 54 -16 1 -28 5 -28 8 0 5 -38 7 -267 13 -84 2
-154 3 -155 1z"/>
</g>
</svg>
